<?xml version="1.0" encoding="utf-8"?>
<svg viewBox="0 0 130 76" xmlns="http://www.w3.org/2000/svg">
  <g transform="matrix(1, 0, 0, 1, -11, 0)">
    <path style="stroke: rgb(80, 60, 175); fill: rgb(247, 143, 25);" d="M 128.538 38.927 L 109.682 38.927 C 109.682 38.927 96.452 0.281 96.41 0.281 L 71.551 75.127 L 47.766 13.414 L 39.215 38.899 L 23.333 38.899"/>
    <path d="M 25.02 38.864 C 25.02 40.556 24.276 42.221 23.173 43.325 C 22.069 44.428 20.404 45.173 18.711 45.173 C 17.019 45.173 15.353 44.428 14.25 43.325 C 13.147 42.221 12.402 40.556 12.402 38.864 C 12.402 37.171 13.147 35.506 14.25 34.402 C 15.353 33.299 17.019 32.554 18.711 32.554 C 20.404 32.554 22.069 33.299 23.173 34.402 C 24.276 35.506 25.02 37.171 25.02 38.864 Z M 22.181 35.393 C 21.255 34.467 20.116 33.956 18.711 33.956 C 17.306 33.956 16.168 34.467 15.241 35.393 C 14.314 36.32 13.804 37.459 13.804 38.864 C 13.804 40.268 14.314 41.407 15.241 42.334 C 16.168 43.26 17.306 43.771 18.711 43.771 C 20.116 43.771 21.255 43.26 22.181 42.334 C 23.108 41.407 23.618 40.268 23.618 38.864 C 23.618 37.459 23.108 36.32 22.181 35.393 Z" style="fill: none;"/>
    <path d="M 23.669 43.821 C 22.476 45.013 20.547 45.874 18.711 45.874 C 16.876 45.874 14.947 45.013 13.754 43.821 C 12.562 42.628 11.701 40.699 11.701 38.864 C 11.701 37.028 12.562 35.099 13.754 33.906 C 14.947 32.714 16.876 31.853 18.711 31.853 C 20.547 31.853 22.476 32.714 23.669 33.906 C 24.186 34.425 24.659 35.103 24.999 35.793 L 25.496 36.8 L 22.408 36.8 L 22.201 36.501 C 22.047 36.278 21.888 36.092 21.685 35.89 C 20.847 35.05 19.973 34.657 18.711 34.657 C 17.449 34.657 16.576 35.051 15.738 35.89 C 14.898 36.728 14.505 37.602 14.505 38.864 C 14.505 40.125 14.898 40.999 15.738 41.837 C 16.576 42.677 17.449 43.07 18.711 43.07 C 19.973 43.07 20.847 42.677 21.685 41.837 C 21.866 41.658 22.012 41.491 22.153 41.293 L 22.362 41.006 L 25.472 41.006 L 24.956 42.021 C 24.622 42.678 24.164 43.325 23.669 43.821 Z M 21.231 43.876 C 20.472 44.257 19.617 44.472 18.711 44.472 C 17.806 44.472 16.95 44.257 16.192 43.876 C 16.949 44.257 17.806 44.472 18.711 44.472 C 19.617 44.472 20.474 44.257 21.231 43.876 Z M 13.699 41.383 C 13.318 40.625 13.103 39.769 13.103 38.864 C 13.103 37.958 13.318 37.103 13.699 36.344 C 13.318 37.101 13.103 37.958 13.103 38.864 C 13.103 39.769 13.318 40.626 13.699 41.383 Z M 16.192 33.851 C 16.95 33.47 17.806 33.255 18.711 33.255 C 19.617 33.255 20.472 33.47 21.231 33.851 C 20.474 33.47 19.617 33.255 18.711 33.255 C 17.806 33.255 16.949 33.47 16.192 33.851 Z M 23.125 35.398 C 23.203 35.497 23.279 35.597 23.351 35.696 L 23.139 35.398 L 23.125 35.398 Z M 23.072 35.333 C 23.011 35.246 23.041 35.263 22.714 34.935 C 22.837 35.061 22.958 35.196 23.072 35.333 Z" style="fill: none;"/>
    <path d="M 24.164 44.317 C 22.867 45.581 20.69 46.575 18.711 46.575 C 16.733 46.575 14.556 45.581 13.257 44.316 C 11.994 43.019 11 40.842 11 38.864 C 11 36.885 11.994 34.708 13.259 33.41 C 14.556 32.146 16.733 31.152 18.711 31.152 C 20.69 31.152 22.867 32.148 24.165 33.411 C 24.722 33.977 25.26 34.749 25.628 35.483 L 26.623 37.501 L 24.099 37.501 L 24.141 37.733 L 23.949 37.501 L 22.043 37.501 L 21.832 37.199 L 21.625 36.899 C 21.492 36.704 21.372 36.566 21.189 36.385 C 20.455 35.618 19.83 35.358 18.711 35.358 C 17.594 35.358 16.967 35.619 16.232 36.386 C 15.466 37.119 15.206 37.745 15.206 38.864 C 15.206 39.982 15.466 40.608 16.234 41.342 C 16.967 42.109 17.592 42.369 18.711 42.369 C 19.83 42.369 20.457 42.108 21.191 41.34 C 21.356 41.178 21.466 41.052 21.587 40.881 L 22.005 40.305 L 26.615 40.305 L 26.097 41.324 L 25.581 42.338 C 25.221 43.04 24.697 43.776 24.164 44.317 Z M 24.331 41.704 L 24.329 41.707 L 22.72 41.707 C 22.557 41.931 22.378 42.136 22.181 42.332 C 21.793 42.708 21.374 43.018 20.918 43.253 L 21.543 44.498 C 22.162 44.191 22.72 43.793 23.173 43.325 C 23.63 42.873 24.024 42.317 24.331 41.704 Z M 18.711 43.771 C 18.71 43.771 18.71 43.771 18.708 43.771 C 18.71 43.771 18.71 44.472 18.711 44.472 C 18.71 44.472 18.708 45.173 18.708 45.173 C 18.708 45.173 18.71 45.173 18.711 45.173 C 19.652 45.173 20.59 44.948 21.424 44.556 C 20.618 44.868 19.653 44.472 18.711 44.472 C 19.494 44.472 20.164 43.682 20.82 43.302 C 20.193 43.607 19.496 43.771 18.711 43.771 Z M 18.708 43.771 L 18.708 45.173 C 18.708 45.173 18.708 45.173 18.708 45.173 L 18.708 43.771 C 18.708 43.771 18.708 43.771 18.708 43.771 Z M 15.241 42.334 C 14.867 41.945 14.557 41.526 14.321 41.07 L 13.078 41.696 C 13.383 42.314 13.782 42.872 14.25 43.325 C 14.703 43.793 15.261 44.191 15.879 44.497 L 16.504 43.253 C 16.049 43.018 15.63 42.708 15.241 42.334 Z M 13.804 38.864 C 13.804 38.332 13.88 37.84 14.023 37.384 C 13.876 37.846 13.804 38.328 13.804 38.864 C 13.804 39.398 13.874 39.88 14.021 40.34 C 13.88 39.884 13.804 39.395 13.804 38.864 Z M 15.243 35.393 C 15.63 35.019 16.049 34.709 16.504 34.474 L 15.879 33.23 C 15.261 33.536 14.703 33.934 14.25 34.402 C 13.782 34.855 13.383 35.413 13.078 36.031 L 14.321 36.657 C 14.557 36.201 14.867 35.782 15.243 35.393 Z M 18.711 33.956 C 19.243 33.956 19.733 34.032 20.19 34.175 C 19.729 34.026 19.245 33.956 18.711 33.956 C 18.159 33.956 17.663 34.032 17.187 34.189 C 17.656 34.038 18.162 33.956 18.711 33.956 Z M 22.181 35.395 C 22.275 35.489 22.365 35.586 22.452 35.685 C 22.375 35.595 22.296 35.511 22.214 35.426 L 22.236 35.403 L 21.678 34.697 L 22.951 34.697 L 23.21 34.44 C 23.236 34.465 23.258 34.488 23.279 34.51 C 23.244 34.472 23.209 34.437 23.173 34.402 C 22.72 33.934 22.162 33.536 21.543 33.23 L 20.918 34.474 C 21.374 34.709 21.793 35.019 22.181 35.395 Z M 22.591 35.852 C 22.588 35.849 22.585 35.845 22.582 35.842 L 22.578 35.837 C 22.582 35.842 22.587 35.846 22.591 35.852 Z M 22.777 36.103 L 22.985 36.4 L 22.774 36.099 L 22.777 36.099 C 22.748 36.059 22.72 36.02 22.69 35.981 C 22.72 36.02 22.749 36.061 22.777 36.103 Z M 24.369 36.099 L 24.371 36.103 C 24.234 35.822 24.08 35.553 23.91 35.3 L 23.735 35.426 L 23.853 36.099 L 24.369 36.099 Z M 22.79 36.099 L 22.794 36.099 L 22.793 36.097 L 22.79 36.099 Z M 18.711 32.554 C 18.062 32.554 17.414 32.661 16.8 32.857 C 17.409 32.666 18.065 32.554 18.711 32.554 C 19.353 32.554 20.007 32.665 20.612 32.854 C 20.003 32.661 19.358 32.554 18.711 32.554 Z M 12.402 38.864 C 12.402 39.513 12.509 40.16 12.705 40.775 C 12.514 40.166 12.402 39.51 12.402 38.864 C 12.402 38.221 12.513 37.568 12.702 36.962 C 12.509 37.574 12.402 38.217 12.402 38.864 Z M 18.708 43.771 C 18.096 43.771 17.538 43.67 17.025 43.482 C 17.548 43.681 18.094 43.778 18.708 43.771 Z M 16.538 44.78 C 17.226 45.033 17.965 45.173 18.708 45.173 C 17.968 45.164 17.217 45.021 16.538 44.78 Z" style="fill: none;"/>
    <path d="M 22.216 38.864 C 22.216 39.78 21.786 40.746 21.19 41.342 C 20.594 41.938 19.628 42.369 18.711 42.369 C 17.794 42.369 16.828 41.938 16.232 41.342 C 15.637 40.746 15.206 39.78 15.206 38.864 C 15.206 37.947 15.637 36.981 16.232 36.385 C 16.828 35.789 17.794 35.358 18.711 35.358 C 19.628 35.358 20.594 35.789 21.19 36.385 C 21.786 36.981 22.216 37.947 22.216 38.864 Z M 20.199 37.376 C 19.78 36.957 19.342 36.76 18.711 36.76 C 18.08 36.76 17.643 36.957 17.224 37.376 C 16.804 37.795 16.608 38.233 16.608 38.864 C 16.608 39.494 16.804 39.932 17.224 40.351 C 17.643 40.77 18.08 40.967 18.711 40.967 C 19.342 40.967 19.78 40.77 20.199 40.351 C 20.618 39.932 20.814 39.494 20.814 38.864 C 20.814 38.233 20.618 37.795 20.199 37.376 Z" style="fill: none;"/>
    <ellipse style="fill: none;" cx="18.711" cy="38.864" rx="5.608" ry="5.608"/>
    <path d="M 23.173 43.325 C 22.069 44.428 20.404 45.173 18.711 45.173 C 17.019 45.173 15.353 44.428 14.25 43.325 C 13.147 42.221 12.402 40.556 12.402 38.864 C 12.402 37.171 13.147 35.506 14.25 34.402 C 15.353 33.299 17.019 32.554 18.711 32.554 C 20.404 32.554 22.069 33.299 23.173 34.402 C 23.648 34.878 24.057 35.458 24.369 36.099 L 22.776 36.099 C 22.602 35.851 22.404 35.616 22.181 35.393 C 21.255 34.467 20.116 33.956 18.711 33.956 C 17.306 33.956 16.168 34.467 15.241 35.393 C 14.314 36.32 13.804 37.459 13.804 38.864 C 13.804 40.268 14.314 41.407 15.241 42.334 C 16.168 43.26 17.306 43.771 18.711 43.771 C 20.116 43.771 21.255 43.26 22.181 42.334 C 22.38 42.135 22.56 41.926 22.72 41.707 L 24.329 41.707 C 24.024 42.317 23.628 42.869 23.173 43.325 Z" style="fill: rgb(80, 60, 175);"/>
    <path d="M 23.669 43.821 C 22.476 45.013 20.547 45.874 18.711 45.874 C 16.876 45.874 14.947 45.013 13.754 43.821 C 12.562 42.628 11.701 40.699 11.701 38.864 C 11.701 37.028 12.562 35.099 13.754 33.906 C 14.947 32.714 16.876 31.853 18.711 31.853 C 20.547 31.853 22.476 32.714 23.669 33.906 C 24.186 34.425 24.659 35.103 24.999 35.793 L 25.496 36.8 L 22.408 36.8 L 22.201 36.501 C 22.047 36.278 21.888 36.092 21.685 35.89 C 20.847 35.05 19.973 34.657 18.711 34.657 C 17.449 34.657 16.576 35.051 15.738 35.89 C 14.898 36.728 14.505 37.602 14.505 38.864 C 14.505 40.125 14.898 40.999 15.738 41.837 C 16.576 42.677 17.449 43.07 18.711 43.07 C 19.973 43.07 20.847 42.677 21.685 41.837 C 21.866 41.658 22.012 41.491 22.153 41.293 L 22.362 41.006 L 25.472 41.006 L 24.956 42.021 C 24.622 42.678 24.164 43.325 23.669 43.821 Z M 21.231 43.876 C 20.472 44.257 19.617 44.472 18.711 44.472 C 17.806 44.472 16.95 44.257 16.192 43.876 C 16.949 44.257 17.806 44.472 18.711 44.472 C 19.617 44.472 20.474 44.257 21.231 43.876 Z M 13.699 41.383 C 13.318 40.625 13.103 39.769 13.103 38.864 C 13.103 37.958 13.318 37.103 13.699 36.344 C 13.318 37.101 13.103 37.958 13.103 38.864 C 13.103 39.769 13.318 40.626 13.699 41.383 Z M 16.192 33.851 C 16.95 33.47 17.806 33.255 18.711 33.255 C 19.617 33.255 20.472 33.47 21.231 33.851 C 20.474 33.47 19.617 33.255 18.711 33.255 C 17.806 33.255 16.949 33.47 16.192 33.851 Z M 23.125 35.398 C 23.203 35.497 23.279 35.597 23.351 35.696 L 23.139 35.398 L 23.125 35.398 Z M 23.072 35.333 C 23.011 35.246 23.041 35.263 22.714 34.935 C 22.837 35.061 22.958 35.196 23.072 35.333 Z" style="fill: none;"/>
    <ellipse style="fill: rgb(80, 60, 175);" cx="18.711" cy="38.864" rx="2.804" ry="2.804"/>
    <path d="M 22.216 38.864 C 22.216 39.78 21.786 40.746 21.19 41.342 C 20.594 41.938 19.628 42.369 18.711 42.369 C 17.794 42.369 16.828 41.938 16.232 41.342 C 15.637 40.746 15.206 39.78 15.206 38.864 C 15.206 37.947 15.637 36.981 16.232 36.385 C 16.828 35.789 17.794 35.358 18.711 35.358 C 19.628 35.358 20.594 35.789 21.19 36.385 C 21.786 36.981 22.216 37.947 22.216 38.864 Z M 20.199 37.376 C 19.78 36.957 19.342 36.76 18.711 36.76 C 18.08 36.76 17.643 36.957 17.224 37.376 C 16.804 37.795 16.608 38.233 16.608 38.864 C 16.608 39.494 16.804 39.932 17.224 40.351 C 17.643 40.77 18.08 40.967 18.711 40.967 C 19.342 40.967 19.78 40.77 20.199 40.351 C 20.618 39.932 20.814 39.494 20.814 38.864 C 20.814 38.233 20.618 37.795 20.199 37.376 Z" style="fill: none;"/>
    <path d="M 22.917 38.864 C 22.917 39.923 22.371 41.153 21.686 41.839 C 21.001 42.523 19.771 43.07 18.711 43.07 C 17.651 43.07 16.422 42.523 15.736 41.839 C 15.052 41.153 14.505 39.923 14.505 38.864 C 14.505 37.804 15.052 36.574 15.736 35.888 C 16.422 35.204 17.651 34.657 18.711 34.657 C 19.771 34.657 21.001 35.204 21.686 35.888 C 22.371 36.574 22.917 37.804 22.917 38.864 Z M 19.703 37.872 C 19.372 37.54 19.199 37.461 18.711 37.461 C 18.223 37.461 18.051 37.54 17.72 37.872 C 17.388 38.203 17.309 38.376 17.309 38.864 C 17.309 39.351 17.388 39.524 17.72 39.855 C 18.051 40.187 18.223 40.266 18.711 40.266 C 19.199 40.266 19.372 40.187 19.703 39.855 C 20.035 39.524 20.113 39.351 20.113 38.864 C 20.113 38.376 20.035 38.203 19.703 37.872 Z" style="fill: none;"/>
    <ellipse style="fill: none;" cx="-133.99" cy="38.864" rx="5.608" ry="5.608" transform="matrix(-1, 0, 0, 1, 0, 0)"/>
    <path d="M 139.07 34.402 C 137.967 33.299 136.301 32.554 134.609 32.554 C 132.917 32.554 131.251 33.299 130.148 34.402 C 129.044 35.506 128.3 37.171 128.3 38.864 C 128.3 40.556 129.044 42.221 130.148 43.325 C 131.251 44.428 132.917 45.173 134.609 45.173 C 136.301 45.173 137.967 44.428 139.07 43.325 C 139.545 42.85 139.955 42.269 140.266 41.628 L 138.673 41.628 C 138.5 41.876 138.302 42.111 138.079 42.334 C 137.152 43.26 136.014 43.771 134.609 43.771 C 133.204 43.771 132.066 43.26 131.139 42.334 C 130.212 41.407 129.702 40.268 129.702 38.864 C 129.702 37.459 130.212 36.32 131.139 35.393 C 132.066 34.467 133.204 33.956 134.609 33.956 C 136.014 33.956 137.152 34.467 138.079 35.393 C 138.278 35.593 138.457 35.801 138.617 36.02 L 140.227 36.02 C 139.921 35.41 139.526 34.858 139.07 34.402 Z" style="fill: rgb(80, 60, 175); transform-box: fill-box; transform-origin: 50% 50%;" transform="matrix(-1, 0, 0, -1, -0.000009, -0.000011)"/>
    <path d="M 139.173 33.906 C 137.98 32.714 136.051 31.853 134.216 31.853 C 132.38 31.853 130.451 32.714 129.258 33.906 C 128.066 35.099 127.205 37.028 127.205 38.864 C 127.205 40.699 128.066 42.628 129.258 43.821 C 130.451 45.013 132.38 45.874 134.216 45.874 C 136.051 45.874 137.98 45.013 139.173 43.821 C 139.691 43.302 140.163 42.624 140.504 41.934 L 141 40.927 L 137.913 40.927 L 137.705 41.226 C 137.551 41.449 137.393 41.635 137.189 41.837 C 136.351 42.677 135.477 43.07 134.216 43.07 C 132.954 43.07 132.08 42.676 131.242 41.837 C 130.402 40.999 130.009 40.125 130.009 38.864 C 130.009 37.602 130.402 36.728 131.242 35.89 C 132.08 35.05 132.954 34.657 134.216 34.657 C 135.477 34.657 136.351 35.05 137.189 35.89 C 137.37 36.069 137.516 36.236 137.658 36.434 L 137.867 36.721 L 140.976 36.721 L 140.46 35.706 C 140.127 35.049 139.668 34.402 139.173 33.906 Z M 136.735 33.851 C 135.977 33.47 135.121 33.255 134.216 33.255 C 133.31 33.255 132.455 33.47 131.696 33.851 C 132.453 33.47 133.31 33.255 134.216 33.255 C 135.121 33.255 135.978 33.47 136.735 33.851 Z M 129.203 36.344 C 128.822 37.103 128.607 37.958 128.607 38.864 C 128.607 39.769 128.822 40.624 129.203 41.383 C 128.822 40.626 128.607 39.769 128.607 38.864 C 128.607 37.958 128.822 37.101 129.203 36.344 Z M 131.696 43.876 C 132.455 44.257 133.31 44.472 134.216 44.472 C 135.121 44.472 135.977 44.257 136.735 43.876 C 135.978 44.257 135.121 44.472 134.216 44.472 C 133.31 44.472 132.453 44.257 131.696 43.876 Z M 138.629 42.329 C 138.708 42.23 138.783 42.13 138.855 42.031 L 138.643 42.329 L 138.629 42.329 Z M 138.576 42.394 C 138.516 42.481 138.545 42.464 138.218 42.792 C 138.342 42.666 138.462 42.531 138.576 42.394 Z" style="fill: none; transform-box: fill-box; transform-origin: 50% 50%;" transform="matrix(-1, 0, 0, -1, -0.000002, -0.000011)"/>
    <ellipse style="fill: rgb(80, 60, 175);" cx="-133.99" cy="38.864" rx="2.804" ry="2.804" transform="matrix(-1, 0, 0, 1, 0, 0)"/>
    <path d="M 137.495 38.864 C 137.495 37.947 137.065 36.981 136.469 36.385 C 135.873 35.789 134.907 35.358 133.99 35.358 C 133.073 35.358 132.107 35.789 131.511 36.385 C 130.915 36.981 130.485 37.947 130.485 38.864 C 130.485 39.78 130.915 40.746 131.511 41.342 C 132.107 41.938 133.073 42.369 133.99 42.369 C 134.907 42.369 135.873 41.938 136.469 41.342 C 137.065 40.746 137.495 39.78 137.495 38.864 Z M 135.477 40.351 C 135.058 40.77 134.621 40.967 133.99 40.967 C 133.359 40.967 132.922 40.77 132.502 40.351 C 132.083 39.932 131.887 39.494 131.887 38.864 C 131.887 38.233 132.083 37.795 132.502 37.376 C 132.922 36.957 133.359 36.76 133.99 36.76 C 134.621 36.76 135.058 36.957 135.477 37.376 C 135.897 37.795 136.093 38.233 136.093 38.864 C 136.093 39.494 135.897 39.932 135.477 40.351 Z" style="fill: none; transform-box: fill-box; transform-origin: 50% 50%;" transform="matrix(-1, 0, 0, -1, 0.000015, -0.000011)"/>
  </g>
</svg>