<?xml version="1.0" encoding="utf-8"?>
<svg viewBox="0 0 500 76" xmlns="http://www.w3.org/2000/svg">
  <g transform="matrix(1.402045, 0, 0, 1.402045, -130.694412, -139.923843)">
    <path d="M 224.336 153.398 L 214.256 153.398 L 214.256 129.2 L 224.336 129.2 L 224.336 153.398 Z M 244.639 143.03 L 244.639 129.2 L 276.031 129.2 L 276.031 131.51 L 254.719 132.158 L 254.719 140.366 C 254.719 141.278 254.839 142.01 255.079 142.562 C 255.319 143.114 255.703 143.498 256.231 143.714 C 256.759 143.93 257.203 144.05 257.563 144.074 C 257.923 144.098 258.463 144.11 259.183 144.11 L 279.271 144.11 L 279.271 152.39 C 278.071 152.534 275.599 152.714 271.855 152.93 C 268.111 153.146 264.655 153.302 261.487 153.398 L 256.807 153.614 C 255.703 153.662 254.671 153.638 253.711 153.542 C 252.751 153.446 251.695 153.182 250.543 152.75 C 249.391 152.318 248.395 151.742 247.555 151.022 C 246.715 150.302 246.019 149.258 245.467 147.89 C 244.915 146.522 244.639 144.902 244.639 143.03 Z M 284.31 153.398 L 286.426 129.2 L 296.374 129.2 L 294.246 153.398 L 284.31 153.398 Z M 311.742 136.694 L 313.556 129.2 L 323.269 129.2 L 317.43 153.398 L 306.198 153.398 L 300.111 129.2 L 309.913 129.2 L 311.742 136.694 Z M 339.318 153.398 L 329.382 153.398 L 327.007 129.2 L 337.07 129.2 L 339.318 153.398 Z M 344.718 153.398 L 352.883 129.2 L 363.209 129.2 L 361.998 132.806 L 374.238 132.806 L 373.109 129.2 L 383.218 129.2 L 391.086 153.398 L 380.358 153.398 L 376.614 141.734 L 359.334 141.734 L 355.518 153.398 L 344.718 153.398 Z M 431.01 129.314 C 431.322 130.058 431.562 130.838 431.73 131.654 C 431.898 132.47 432.018 133.25 432.09 133.994 C 432.162 134.738 432.198 135.494 432.198 136.262 L 432.198 139.79 C 432.198 142.094 431.91 144.11 431.334 145.838 C 430.758 147.566 430.026 148.934 429.138 149.942 C 428.25 150.95 427.146 151.766 425.826 152.39 C 424.506 153.014 423.198 153.434 421.902 153.65 C 420.606 153.866 419.19 153.974 417.654 153.974 C 408.966 153.974 402.174 153.254 397.278 151.814 L 397.278 143.894 C 402.558 144.422 408.678 144.686 415.638 144.686 C 416.55 144.686 417.33 144.638 417.978 144.542 C 418.626 144.446 419.298 144.254 419.994 143.966 C 420.69 143.678 421.218 143.21 421.578 142.562 C 421.938 141.914 422.118 141.11 422.118 140.15 L 422.118 137.342 C 422.118 135.662 421.782 134.414 421.11 133.598 C 420.438 132.782 419.19 132.374 417.366 132.374 L 409.302 132.374 C 405.002 132.351 401.721 131.293 399.459 129.2 L 430.962 129.2 C 430.978 129.238 430.994 129.276 431.01 129.314 Z" style="fill: rgb(80, 60, 175);"/>
    <path d="M 200 109.546 L 200 100.258 L 238.952 100.258 L 238.952 109.546 L 224.336 109.546 L 224.336 125.825 L 214.256 125.825 L 214.256 109.546 L 200 109.546 Z M 244.639 111.202 C 244.639 109.426 244.879 107.866 245.359 106.522 C 245.839 105.178 246.463 104.122 247.231 103.354 C 247.999 102.586 248.899 101.95 249.931 101.446 C 250.963 100.942 251.971 100.618 252.955 100.474 C 253.939 100.33 254.983 100.258 256.087 100.258 C 268.471 100.594 276.199 100.978 279.271 101.41 L 279.271 109.762 L 258.463 109.762 C 257.551 109.762 256.831 109.858 256.303 110.05 C 255.775 110.242 255.403 110.578 255.187 111.058 C 254.971 111.538 254.839 111.946 254.791 112.282 C 254.743 112.618 254.719 113.122 254.719 113.794 L 254.719 122.002 L 276.031 122.722 L 276.031 125.825 L 244.639 125.825 L 244.639 111.202 Z M 288.918 100.258 L 302.958 100.258 L 309.196 125.825 L 299.372 125.825 L 297.342 117.754 L 296.632 125.825 L 286.683 125.825 L 288.918 100.258 Z M 320.454 100.258 L 334.422 100.258 L 336.797 125.825 L 326.718 125.825 L 325.926 117.754 L 323.978 125.825 L 314.267 125.825 L 320.454 100.258 Z M 362.502 100.258 L 373.95 100.258 L 382.263 125.825 L 372.19 125.825 L 368.334 113.506 L 364.196 125.825 L 353.875 125.825 L 362.502 100.258 Z M 395.694 117.97 L 395.694 113.434 C 395.694 111.418 395.934 109.618 396.414 108.034 C 396.894 106.45 397.542 105.154 398.358 104.146 C 399.174 103.138 400.194 102.31 401.418 101.662 C 402.642 101.014 403.938 100.558 405.306 100.294 C 406.674 100.03 408.222 99.874 409.95 99.826 C 413.598 99.73 417.366 99.898 421.254 100.33 C 425.142 100.762 428.166 101.29 430.326 101.914 L 430.326 109.834 C 424.854 109.354 418.974 109.114 412.686 109.114 C 410.142 109.066 408.354 109.342 407.322 109.942 C 406.29 110.542 405.774 111.97 405.774 114.226 L 405.774 116.818 C 405.774 118.834 406.182 120.178 406.998 120.85 C 407.814 121.522 409.278 121.858 411.39 121.858 L 419.742 121.858 C 420.99 121.858 422.154 121.978 423.234 122.218 C 424.314 122.458 425.25 122.794 426.042 123.226 C 426.834 123.658 427.554 124.162 428.202 124.738 C 428.582 125.076 428.929 125.438 429.242 125.825 L 397.269 125.825 C 396.219 123.74 395.694 121.122 395.694 117.97 Z" style="fill: rgb(80, 60, 175);"/>
    <path style="stroke: rgb(80, 60, 175); fill: rgb(247, 143, 25);" d="M 442.377 127.564 L 189.991 127.564 C 189.991 127.564 176.989 100 176.959 100 L 154.236 153.384 L 134.418 109.367 L 124.04 127.544 L 101.3 127.544"/>
    <path d="M 103.217 127.519 C 103.217 128.726 102.686 129.914 101.899 130.701 C 101.112 131.488 99.924 132.019 98.717 132.019 C 97.51 132.019 96.322 131.488 95.535 130.701 C 94.748 129.914 94.217 128.726 94.217 127.519 C 94.217 126.312 94.748 125.124 95.535 124.337 C 96.322 123.55 97.51 123.019 98.717 123.019 C 99.924 123.019 101.112 123.55 101.899 124.337 C 102.686 125.124 103.217 126.312 103.217 127.519 Z M 101.192 125.044 C 100.531 124.383 99.719 124.019 98.717 124.019 C 97.715 124.019 96.903 124.383 96.242 125.044 C 95.581 125.705 95.217 126.517 95.217 127.519 C 95.217 128.521 95.581 129.333 96.242 129.994 C 96.903 130.655 97.715 131.019 98.717 131.019 C 99.719 131.019 100.531 130.655 101.192 129.994 C 101.853 129.333 102.217 128.521 102.217 127.519 C 102.217 126.517 101.853 125.705 101.192 125.044 Z" style="fill: none;"/>
    <path d="M 102.253 131.055 C 101.402 131.905 100.026 132.519 98.717 132.519 C 97.408 132.519 96.032 131.905 95.181 131.055 C 94.331 130.204 93.717 128.828 93.717 127.519 C 93.717 126.21 94.331 124.834 95.181 123.983 C 96.032 123.133 97.408 122.519 98.717 122.519 C 100.026 122.519 101.402 123.133 102.253 123.983 C 102.622 124.353 102.959 124.837 103.202 125.329 L 103.556 126.047 L 101.354 126.047 L 101.206 125.834 C 101.096 125.675 100.983 125.542 100.838 125.398 C 100.24 124.799 99.617 124.519 98.717 124.519 C 97.817 124.519 97.194 124.8 96.596 125.398 C 95.997 125.996 95.717 126.619 95.717 127.519 C 95.717 128.419 95.997 129.042 96.596 129.64 C 97.194 130.239 97.817 130.519 98.717 130.519 C 99.617 130.519 100.24 130.239 100.838 129.64 C 100.967 129.512 101.071 129.393 101.172 129.252 L 101.321 129.047 L 103.539 129.047 L 103.171 129.771 C 102.933 130.24 102.606 130.701 102.253 131.055 Z M 100.514 131.094 C 99.973 131.366 99.363 131.519 98.717 131.519 C 98.071 131.519 97.461 131.366 96.92 131.094 C 97.46 131.366 98.071 131.519 98.717 131.519 C 99.363 131.519 99.974 131.366 100.514 131.094 Z M 95.142 129.316 C 94.87 128.775 94.717 128.165 94.717 127.519 C 94.717 126.873 94.87 126.263 95.142 125.722 C 94.87 126.262 94.717 126.873 94.717 127.519 C 94.717 128.165 94.87 128.776 95.142 129.316 Z M 96.92 123.944 C 97.461 123.672 98.071 123.519 98.717 123.519 C 99.363 123.519 99.973 123.672 100.514 123.944 C 99.974 123.672 99.363 123.519 98.717 123.519 C 98.071 123.519 97.46 123.672 96.92 123.944 Z M 101.865 125.047 C 101.921 125.118 101.975 125.189 102.026 125.26 L 101.875 125.047 L 101.865 125.047 Z M 101.827 125.001 C 101.784 124.939 101.805 124.951 101.572 124.717 C 101.66 124.807 101.746 124.903 101.827 125.001 Z" style="fill: none;"/>
    <path d="M 102.606 131.409 C 101.681 132.31 100.128 133.019 98.717 133.019 C 97.306 133.019 95.753 132.31 94.827 131.408 C 93.926 130.483 93.217 128.93 93.217 127.519 C 93.217 126.108 93.926 124.555 94.828 123.629 C 95.753 122.728 97.306 122.019 98.717 122.019 C 100.128 122.019 101.681 122.729 102.607 123.63 C 103.004 124.034 103.388 124.584 103.65 125.108 L 104.36 126.547 L 102.56 126.547 L 102.59 126.713 L 102.453 126.547 L 101.093 126.547 L 100.943 126.332 L 100.795 126.118 C 100.7 125.979 100.615 125.88 100.484 125.751 C 99.961 125.204 99.515 125.019 98.717 125.019 C 97.92 125.019 97.473 125.205 96.949 125.752 C 96.402 126.275 96.217 126.721 96.217 127.519 C 96.217 128.317 96.402 128.763 96.95 129.287 C 97.473 129.834 97.919 130.019 98.717 130.019 C 99.515 130.019 99.962 129.833 100.486 129.285 C 100.603 129.17 100.682 129.08 100.768 128.958 L 101.066 128.547 L 104.354 128.547 L 103.985 129.274 L 103.617 129.997 C 103.36 130.498 102.986 131.023 102.606 131.409 Z M 102.725 129.545 L 102.724 129.547 L 101.576 129.547 C 101.46 129.707 101.332 129.853 101.192 129.993 C 100.915 130.261 100.616 130.482 100.291 130.65 L 100.737 131.538 C 101.178 131.319 101.576 131.035 101.899 130.701 C 102.225 130.379 102.506 129.982 102.725 129.545 Z M 98.717 131.019 C 98.716 131.019 98.716 131.019 98.715 131.019 C 98.716 131.019 98.716 131.519 98.717 131.519 C 98.716 131.519 98.715 132.019 98.715 132.019 C 98.715 132.019 98.716 132.019 98.717 132.019 C 99.388 132.019 100.057 131.859 100.652 131.579 C 100.077 131.802 99.389 131.519 98.717 131.519 C 99.275 131.519 99.753 130.956 100.221 130.685 C 99.774 130.902 99.277 131.019 98.717 131.019 Z M 98.715 131.019 L 98.715 132.019 C 98.715 132.019 98.715 132.019 98.715 132.019 L 98.715 131.019 C 98.715 131.019 98.715 131.019 98.715 131.019 Z M 96.242 129.994 C 95.975 129.717 95.754 129.418 95.586 129.093 L 94.699 129.539 C 94.917 129.98 95.201 130.378 95.535 130.701 C 95.858 131.035 96.256 131.319 96.697 131.537 L 97.143 130.65 C 96.818 130.482 96.519 130.261 96.242 129.994 Z M 95.217 127.519 C 95.217 127.14 95.271 126.789 95.373 126.464 C 95.268 126.793 95.217 127.137 95.217 127.519 C 95.217 127.9 95.267 128.244 95.372 128.572 C 95.271 128.247 95.217 127.898 95.217 127.519 Z M 96.243 125.044 C 96.519 124.777 96.818 124.556 97.143 124.388 L 96.697 123.501 C 96.256 123.719 95.858 124.003 95.535 124.337 C 95.201 124.66 94.917 125.058 94.699 125.499 L 95.586 125.945 C 95.754 125.62 95.975 125.321 96.243 125.044 Z M 98.717 124.019 C 99.096 124.019 99.446 124.073 99.772 124.175 C 99.443 124.069 99.098 124.019 98.717 124.019 C 98.323 124.019 97.969 124.073 97.63 124.185 C 97.964 124.077 98.325 124.019 98.717 124.019 Z M 101.192 125.045 C 101.259 125.112 101.323 125.181 101.385 125.252 C 101.33 125.188 101.274 125.128 101.215 125.067 L 101.231 125.051 L 100.833 124.547 L 101.741 124.547 L 101.926 124.364 C 101.944 124.382 101.96 124.398 101.975 124.414 C 101.95 124.387 101.925 124.362 101.899 124.337 C 101.576 124.003 101.178 123.719 100.737 123.501 L 100.291 124.388 C 100.616 124.556 100.915 124.777 101.192 125.045 Z M 101.484 125.371 C 101.482 125.369 101.48 125.366 101.478 125.364 L 101.475 125.36 C 101.478 125.364 101.481 125.367 101.484 125.371 Z M 101.617 125.55 L 101.765 125.762 L 101.615 125.547 L 101.617 125.547 C 101.596 125.519 101.576 125.491 101.555 125.463 C 101.576 125.491 101.597 125.52 101.617 125.55 Z M 102.752 125.547 L 102.754 125.55 C 102.656 125.35 102.546 125.158 102.425 124.977 L 102.3 125.067 L 102.384 125.547 L 102.752 125.547 Z M 101.626 125.547 L 101.629 125.547 L 101.628 125.546 L 101.626 125.547 Z M 98.717 123.019 C 98.254 123.019 97.792 123.095 97.354 123.235 C 97.788 123.099 98.256 123.019 98.717 123.019 C 99.175 123.019 99.641 123.098 100.073 123.233 C 99.638 123.095 99.178 123.019 98.717 123.019 Z M 94.217 127.519 C 94.217 127.982 94.293 128.444 94.433 128.882 C 94.297 128.448 94.217 127.98 94.217 127.519 C 94.217 127.061 94.296 126.595 94.431 126.163 C 94.293 126.599 94.217 127.058 94.217 127.519 Z M 98.715 131.019 C 98.278 131.019 97.88 130.947 97.514 130.813 C 97.887 130.955 98.277 131.024 98.715 131.019 Z M 97.167 131.739 C 97.658 131.919 98.185 132.019 98.715 132.019 C 98.187 132.013 97.651 131.911 97.167 131.739 Z" style="fill: none;"/>
    <path d="M 101.217 127.519 C 101.217 128.173 100.91 128.862 100.485 129.287 C 100.06 129.712 99.371 130.019 98.717 130.019 C 98.063 130.019 97.374 129.712 96.949 129.287 C 96.524 128.862 96.217 128.173 96.217 127.519 C 96.217 126.865 96.524 126.176 96.949 125.751 C 97.374 125.326 98.063 125.019 98.717 125.019 C 99.371 125.019 100.06 125.326 100.485 125.751 C 100.91 126.176 101.217 126.865 101.217 127.519 Z M 99.778 126.458 C 99.479 126.159 99.167 126.019 98.717 126.019 C 98.267 126.019 97.955 126.159 97.656 126.458 C 97.357 126.757 97.217 127.069 97.217 127.519 C 97.217 127.969 97.357 128.281 97.656 128.58 C 97.955 128.879 98.267 129.019 98.717 129.019 C 99.167 129.019 99.479 128.879 99.778 128.58 C 100.077 128.281 100.217 127.969 100.217 127.519 C 100.217 127.069 100.077 126.757 99.778 126.458 Z" style="fill: none;"/>
    <ellipse style="fill: none;" cx="98.717" cy="127.519" rx="4" ry="4"/>
    <path d="M 101.899 130.701 C 101.112 131.488 99.924 132.019 98.717 132.019 C 97.51 132.019 96.322 131.488 95.535 130.701 C 94.748 129.914 94.217 128.726 94.217 127.519 C 94.217 126.312 94.748 125.124 95.535 124.337 C 96.322 123.55 97.51 123.019 98.717 123.019 C 99.924 123.019 101.112 123.55 101.899 124.337 C 102.238 124.676 102.53 125.09 102.752 125.547 L 101.616 125.547 C 101.492 125.37 101.351 125.203 101.192 125.044 C 100.531 124.383 99.719 124.019 98.717 124.019 C 97.715 124.019 96.903 124.383 96.242 125.044 C 95.581 125.705 95.217 126.517 95.217 127.519 C 95.217 128.521 95.581 129.333 96.242 129.994 C 96.903 130.655 97.715 131.019 98.717 131.019 C 99.719 131.019 100.531 130.655 101.192 129.994 C 101.334 129.852 101.462 129.703 101.576 129.547 L 102.724 129.547 C 102.506 129.982 102.224 130.376 101.899 130.701 Z" style="fill: rgb(80, 60, 175);"/>
    <path d="M 102.253 131.055 C 101.402 131.905 100.026 132.519 98.717 132.519 C 97.408 132.519 96.032 131.905 95.181 131.055 C 94.331 130.204 93.717 128.828 93.717 127.519 C 93.717 126.21 94.331 124.834 95.181 123.983 C 96.032 123.133 97.408 122.519 98.717 122.519 C 100.026 122.519 101.402 123.133 102.253 123.983 C 102.622 124.353 102.959 124.837 103.202 125.329 L 103.556 126.047 L 101.354 126.047 L 101.206 125.834 C 101.096 125.675 100.983 125.542 100.838 125.398 C 100.24 124.799 99.617 124.519 98.717 124.519 C 97.817 124.519 97.194 124.8 96.596 125.398 C 95.997 125.996 95.717 126.619 95.717 127.519 C 95.717 128.419 95.997 129.042 96.596 129.64 C 97.194 130.239 97.817 130.519 98.717 130.519 C 99.617 130.519 100.24 130.239 100.838 129.64 C 100.967 129.512 101.071 129.393 101.172 129.252 L 101.321 129.047 L 103.539 129.047 L 103.171 129.771 C 102.933 130.24 102.606 130.701 102.253 131.055 Z M 100.514 131.094 C 99.973 131.366 99.363 131.519 98.717 131.519 C 98.071 131.519 97.461 131.366 96.92 131.094 C 97.46 131.366 98.071 131.519 98.717 131.519 C 99.363 131.519 99.974 131.366 100.514 131.094 Z M 95.142 129.316 C 94.87 128.775 94.717 128.165 94.717 127.519 C 94.717 126.873 94.87 126.263 95.142 125.722 C 94.87 126.262 94.717 126.873 94.717 127.519 C 94.717 128.165 94.87 128.776 95.142 129.316 Z M 96.92 123.944 C 97.461 123.672 98.071 123.519 98.717 123.519 C 99.363 123.519 99.973 123.672 100.514 123.944 C 99.974 123.672 99.363 123.519 98.717 123.519 C 98.071 123.519 97.46 123.672 96.92 123.944 Z M 101.865 125.047 C 101.921 125.118 101.975 125.189 102.026 125.26 L 101.875 125.047 L 101.865 125.047 Z M 101.827 125.001 C 101.784 124.939 101.805 124.951 101.572 124.717 C 101.66 124.807 101.746 124.903 101.827 125.001 Z" style="fill: none;"/>
    <ellipse style="fill: rgb(80, 60, 175);" cx="98.717" cy="127.519" rx="2" ry="2"/>
    <path d="M 101.217 127.519 C 101.217 128.173 100.91 128.862 100.485 129.287 C 100.06 129.712 99.371 130.019 98.717 130.019 C 98.063 130.019 97.374 129.712 96.949 129.287 C 96.524 128.862 96.217 128.173 96.217 127.519 C 96.217 126.865 96.524 126.176 96.949 125.751 C 97.374 125.326 98.063 125.019 98.717 125.019 C 99.371 125.019 100.06 125.326 100.485 125.751 C 100.91 126.176 101.217 126.865 101.217 127.519 Z M 99.778 126.458 C 99.479 126.159 99.167 126.019 98.717 126.019 C 98.267 126.019 97.955 126.159 97.656 126.458 C 97.357 126.757 97.217 127.069 97.217 127.519 C 97.217 127.969 97.357 128.281 97.656 128.58 C 97.955 128.879 98.267 129.019 98.717 129.019 C 99.167 129.019 99.479 128.879 99.778 128.58 C 100.077 128.281 100.217 127.969 100.217 127.519 C 100.217 127.069 100.077 126.757 99.778 126.458 Z" style="fill: none;"/>
    <path d="M 101.717 127.519 C 101.717 128.275 101.327 129.152 100.839 129.641 C 100.35 130.129 99.473 130.519 98.717 130.519 C 97.961 130.519 97.084 130.129 96.595 129.641 C 96.107 129.152 95.717 128.275 95.717 127.519 C 95.717 126.763 96.107 125.886 96.595 125.397 C 97.084 124.909 97.961 124.519 98.717 124.519 C 99.473 124.519 100.35 124.909 100.839 125.397 C 101.327 125.886 101.717 126.763 101.717 127.519 Z M 99.424 126.812 C 99.188 126.575 99.065 126.519 98.717 126.519 C 98.369 126.519 98.246 126.575 98.01 126.812 C 97.773 127.048 97.717 127.171 97.717 127.519 C 97.717 127.867 97.773 127.99 98.01 128.226 C 98.246 128.463 98.369 128.519 98.717 128.519 C 99.065 128.519 99.188 128.463 99.424 128.226 C 99.661 127.99 99.717 127.867 99.717 127.519 C 99.717 127.171 99.661 127.048 99.424 126.812 Z" style="fill: none;"/>
    <ellipse style="fill: none;" cx="-444.839" cy="127.519" rx="4" ry="4" transform="matrix(-1, 0, 0, 1, 0, 0)"/>
    <path d="M 448.486 124.337 C 447.699 123.55 446.511 123.019 445.304 123.019 C 444.097 123.019 442.909 123.55 442.122 124.337 C 441.335 125.124 440.804 126.312 440.804 127.519 C 440.804 128.726 441.335 129.914 442.122 130.701 C 442.909 131.488 444.097 132.019 445.304 132.019 C 446.511 132.019 447.699 131.488 448.486 130.701 C 448.825 130.362 449.117 129.948 449.339 129.491 L 448.203 129.491 C 448.079 129.668 447.938 129.835 447.779 129.994 C 447.118 130.655 446.306 131.019 445.304 131.019 C 444.302 131.019 443.49 130.655 442.829 129.994 C 442.168 129.333 441.804 128.521 441.804 127.519 C 441.804 126.517 442.168 125.705 442.829 125.044 C 443.49 124.383 444.302 124.019 445.304 124.019 C 446.306 124.019 447.118 124.383 447.779 125.044 C 447.921 125.186 448.049 125.335 448.163 125.491 L 449.311 125.491 C 449.093 125.056 448.811 124.662 448.486 124.337 Z" style="fill: rgb(80, 60, 175); transform-box: fill-box; transform-origin: 50% 50%;" transform="matrix(-1, 0, 0, -1, 0.000033, -0.000015)"/>
    <path d="M 448.536 123.983 C 447.685 123.133 446.309 122.519 445 122.519 C 443.691 122.519 442.315 123.133 441.464 123.983 C 440.614 124.834 440 126.21 440 127.519 C 440 128.828 440.614 130.204 441.464 131.055 C 442.315 131.905 443.691 132.519 445 132.519 C 446.309 132.519 447.685 131.905 448.536 131.055 C 448.905 130.685 449.242 130.201 449.485 129.709 L 449.839 128.991 L 447.637 128.991 L 447.489 129.204 C 447.379 129.363 447.266 129.496 447.121 129.64 C 446.523 130.239 445.9 130.519 445 130.519 C 444.1 130.519 443.477 130.238 442.879 129.64 C 442.28 129.042 442 128.419 442 127.519 C 442 126.619 442.28 125.996 442.879 125.398 C 443.477 124.799 444.1 124.519 445 124.519 C 445.9 124.519 446.523 124.799 447.121 125.398 C 447.25 125.526 447.354 125.645 447.455 125.786 L 447.604 125.991 L 449.822 125.991 L 449.454 125.267 C 449.216 124.798 448.889 124.337 448.536 123.983 Z M 446.797 123.944 C 446.256 123.672 445.646 123.519 445 123.519 C 444.354 123.519 443.744 123.672 443.203 123.944 C 443.743 123.672 444.354 123.519 445 123.519 C 445.646 123.519 446.257 123.672 446.797 123.944 Z M 441.425 125.722 C 441.153 126.263 441 126.873 441 127.519 C 441 128.165 441.153 128.775 441.425 129.316 C 441.153 128.776 441 128.165 441 127.519 C 441 126.873 441.153 126.262 441.425 125.722 Z M 443.203 131.094 C 443.744 131.366 444.354 131.519 445 131.519 C 445.646 131.519 446.256 131.366 446.797 131.094 C 446.257 131.366 445.646 131.519 445 131.519 C 444.354 131.519 443.743 131.366 443.203 131.094 Z M 448.148 129.991 C 448.204 129.92 448.258 129.849 448.309 129.778 L 448.158 129.991 L 448.148 129.991 Z M 448.11 130.037 C 448.067 130.099 448.088 130.087 447.855 130.321 C 447.943 130.231 448.029 130.135 448.11 130.037 Z" style="fill: none; transform-box: fill-box; transform-origin: 50% 50%;" transform="matrix(-1, 0, 0, -1, 0.000013, -0.000015)"/>
    <ellipse style="fill: rgb(80, 60, 175);" cx="-444.839" cy="127.519" rx="2" ry="2" transform="matrix(-1, 0, 0, 1, 0, 0)"/>
    <path d="M 447.339 127.519 C 447.339 126.865 447.032 126.176 446.607 125.751 C 446.182 125.326 445.493 125.019 444.839 125.019 C 444.185 125.019 443.496 125.326 443.071 125.751 C 442.646 126.176 442.339 126.865 442.339 127.519 C 442.339 128.173 442.646 128.862 443.071 129.287 C 443.496 129.712 444.185 130.019 444.839 130.019 C 445.493 130.019 446.182 129.712 446.607 129.287 C 447.032 128.862 447.339 128.173 447.339 127.519 Z M 445.9 128.58 C 445.601 128.879 445.289 129.019 444.839 129.019 C 444.389 129.019 444.077 128.879 443.778 128.58 C 443.479 128.281 443.339 127.969 443.339 127.519 C 443.339 127.069 443.479 126.757 443.778 126.458 C 444.077 126.159 444.389 126.019 444.839 126.019 C 445.289 126.019 445.601 126.159 445.9 126.458 C 446.199 126.757 446.339 127.069 446.339 127.519 C 446.339 127.969 446.199 128.281 445.9 128.58 Z" style="fill: none; transform-box: fill-box; transform-origin: 50% 50%;" transform="matrix(-1, 0, 0, -1, -0.000003, -0.000015)"/>
  </g>
</svg>